M48
; DRILL file {KiCad 8.0.4} date 2024-09-14T21:21:42-0400
; FORMAT={-:-/ absolute / inch / decimal}
; #@! TF.CreationDate,2024-09-14T21:21:42-04:00
; #@! TF.GenerationSoftware,Kicad,Pcbnew,8.0.4
; #@! TF.FileFunction,NonPlated,1,2,NPTH
FMAT,2
INCH
; #@! TA.AperFunction,NonPlated,NPTH,ComponentDrill
T1C0.0669
; #@! TA.AperFunction,NonPlated,NPTH,ComponentDrill
T2C0.1201
; #@! TA.AperFunction,NonPlated,NPTH,ComponentDrill
T3C0.1575
%
G90
G05
T1
X2.6193Y-2.3751
X2.6193Y-3.3126
X2.713Y-6.3126
X2.8068Y-4.0626
X2.9005Y-4.8126
X3.0193Y-2.3751
X3.0193Y-3.3126
X3.0888Y-5.5642
X3.113Y-6.3126
X3.2068Y-4.0626
X3.3005Y-4.8126
X3.3693Y-3.3126
X3.4888Y-5.5642
X3.5568Y-2.3751
X3.6505Y-6.3126
X3.7443Y-4.0626
X3.7693Y-3.3126
X3.9318Y-4.8126
X3.9568Y-2.3751
X4.0505Y-6.3126
X4.1193Y-3.3126
X4.1443Y-4.0626
X4.3068Y-2.3751
X4.3068Y-5.5626
X4.3318Y-4.8126
X4.4943Y-4.0626
X4.5193Y-3.3126
X4.588Y-6.3126
X4.6818Y-4.8126
X4.7068Y-2.3751
X4.7068Y-5.5626
X4.8693Y-3.3126
X4.8943Y-4.0626
X4.988Y-6.3126
X5.0568Y-2.3751
X5.0568Y-5.5626
X5.0818Y-4.8126
X5.2443Y-4.0626
X5.2693Y-3.3126
X5.4318Y-4.8126
X5.4568Y-2.3751
X5.4568Y-5.5626
X5.6193Y-3.3126
X5.6443Y-4.0626
X5.8068Y-2.3751
X5.8068Y-5.5626
X5.8318Y-4.8126
X5.9943Y-4.0626
X6.0193Y-3.3126
X6.1818Y-4.8126
X6.2068Y-2.3751
X6.2068Y-5.5626
X6.3693Y-3.3126
X6.3943Y-4.0626
X6.5568Y-5.5626
X6.5818Y-4.8126
X6.7443Y-2.3751
X6.7443Y-4.0626
X6.7693Y-3.3126
X6.9318Y-4.8126
X6.9568Y-5.5626
X7.1193Y-3.3126
X7.1443Y-2.3751
X7.1443Y-4.0626
X7.3068Y-5.5626
X7.3318Y-4.8126
X7.3998Y-6.3122
X7.4943Y-2.3751
X7.4943Y-4.0626
X7.5193Y-3.3126
X7.6818Y-4.8126
X7.7068Y-5.5626
X7.7998Y-6.3122
X7.8693Y-3.3126
X7.8943Y-2.3751
X7.8943Y-4.0626
X8.0568Y-5.5626
X8.0818Y-4.8126
X8.2443Y-2.3751
X8.2443Y-4.0626
X8.2693Y-3.3126
X8.4318Y-4.8126
X8.4568Y-5.5626
X8.6193Y-3.3126
X8.6443Y-2.3751
X8.6443Y-4.0626
X8.8068Y-5.5626
X8.8318Y-4.8126
X8.9943Y-2.3751
X8.9943Y-4.0626
X9.0193Y-3.3126
X9.1818Y-4.8126
X9.2068Y-5.5626
X9.3693Y-3.3126
X9.3943Y-2.3751
X9.3943Y-4.0626
X9.5568Y-5.5626
X9.5818Y-4.8126
X9.7443Y-4.0626
X9.7693Y-3.3126
X9.9318Y-2.3751
X9.9318Y-4.8126
X9.9568Y-5.5626
X10.1193Y-3.3126
X10.1193Y-6.3126
X10.1443Y-4.0626
X10.3068Y-5.5626
X10.3318Y-2.3751
X10.3318Y-4.8126
X10.4943Y-4.0626
X10.5193Y-3.3126
X10.5193Y-6.3126
X10.6818Y-2.3751
X10.6818Y-4.8126
X10.7068Y-5.5626
X10.8693Y-3.3126
X10.8693Y-6.3126
X10.8943Y-4.0626
X11.0568Y-5.5626
X11.0818Y-2.3751
X11.0818Y-4.8126
X11.2443Y-4.0626
X11.2693Y-3.3126
X11.2693Y-6.3126
X11.4318Y-2.3751
X11.4318Y-4.8126
X11.4568Y-5.5626
X11.6193Y-3.3126
X11.6193Y-6.3126
X11.6443Y-4.0626
X11.8318Y-2.3751
X11.8318Y-4.8126
X11.9943Y-4.0626
X12.0193Y-3.3126
X12.0193Y-6.3126
X12.088Y-5.5626
X12.1818Y-2.3751
X12.3943Y-4.0626
X12.488Y-5.5626
X12.5568Y-6.5001
X12.5818Y-2.3751
X12.6506Y-4.8126
X12.7443Y-3.3126
X12.9318Y-4.0626
X12.9568Y-6.5001
X13.0506Y-4.8126
X13.1193Y-2.3751
X13.1443Y-3.3126
X13.3068Y-5.7501
X13.3068Y-6.5001
X13.3318Y-4.0626
X13.5193Y-2.3751
X13.7068Y-5.7501
X13.7068Y-6.5001
X14.0568Y-6.5001
X14.2439Y-4.063
X14.2439Y-5.563
X14.2443Y-4.8126
X14.4568Y-6.5001
X14.6439Y-4.063
X14.6439Y-5.563
X14.6443Y-4.8126
T2
X2.8203Y-5.2886
X3.7573Y-5.2886
X5.6313Y-6.0366
X9.5683Y-6.0366
X12.3821Y-4.537
X12.4758Y-3.037
X13.3191Y-4.537
X13.4128Y-3.037
T3
X2.8193Y-2.3751
X2.8193Y-3.3126
X2.8203Y-5.8886
X2.913Y-6.3126
X3.0068Y-4.0626
X3.1005Y-4.8126
X3.2888Y-5.5642
X3.5693Y-3.3126
X3.7568Y-2.3751
X3.7573Y-5.8886
X3.8505Y-6.3126
X3.9443Y-4.0626
X4.1318Y-4.8126
X4.3193Y-3.3126
X4.5068Y-2.3751
X4.5068Y-5.5626
X4.6943Y-4.0626
X4.788Y-6.3126
X4.8818Y-4.8126
X5.0693Y-3.3126
X5.2568Y-2.3751
X5.2568Y-5.5626
X5.4443Y-4.0626
X5.6313Y-6.6366
X5.6318Y-4.8126
X5.8193Y-3.3126
X6.0068Y-2.3751
X6.0068Y-5.5626
X6.1943Y-4.0626
X6.3818Y-4.8126
X6.5693Y-3.3126
X6.7568Y-5.5626
X6.9443Y-2.3751
X6.9443Y-4.0626
X7.1318Y-4.8126
X7.3193Y-3.3126
X7.5068Y-5.5626
X7.5998Y-6.3122
X7.6943Y-2.3751
X7.6943Y-4.0626
X7.8818Y-4.8126
X8.0693Y-3.3126
X8.2568Y-5.5626
X8.4443Y-2.3751
X8.4443Y-4.0626
X8.6318Y-4.8126
X8.8193Y-3.3126
X9.0068Y-5.5626
X9.1943Y-2.3751
X9.1943Y-4.0626
X9.3818Y-4.8126
X9.5683Y-6.6366
X9.5693Y-3.3126
X9.7568Y-5.5626
X9.9443Y-4.0626
X10.1318Y-2.3751
X10.1318Y-4.8126
X10.3193Y-3.3126
X10.3193Y-6.3126
X10.5068Y-5.5626
X10.6943Y-4.0626
X10.8818Y-2.3751
X10.8818Y-4.8126
X11.0693Y-3.3126
X11.0693Y-6.3126
X11.2568Y-5.5626
X11.4443Y-4.0626
X11.6318Y-2.3751
X11.6318Y-4.8126
X11.8193Y-3.3126
X11.8193Y-6.3126
X12.1943Y-4.0626
X12.288Y-5.5626
X12.3818Y-2.3751
X12.3821Y-5.137
X12.4758Y-3.637
X12.7568Y-6.5001
X12.8506Y-4.8126
X12.9443Y-3.3126
X13.1318Y-4.0626
X13.3191Y-5.137
X13.3193Y-2.3751
X13.4128Y-3.637
X13.5068Y-5.7501
X13.5068Y-6.5001
X14.2568Y-6.5001
X14.4439Y-4.063
X14.4439Y-5.563
X14.4443Y-4.8126
M30
