M48
; DRILL file {KiCad 8.0.4} date 2024-09-14T21:21:42-0400
; FORMAT={-:-/ absolute / inch / decimal}
; #@! TF.CreationDate,2024-09-14T21:21:42-04:00
; #@! TF.GenerationSoftware,Kicad,Pcbnew,8.0.4
; #@! TF.FileFunction,Plated,1,2,PTH
FMAT,2
INCH
; #@! TA.AperFunction,Plated,PTH,ComponentDrill
T1C0.0157
; #@! TA.AperFunction,Plated,PTH,ComponentDrill
T2C0.0327
; #@! TA.AperFunction,Plated,PTH,ComponentDrill
T3C0.0390
; #@! TA.AperFunction,Plated,PTH,ComponentDrill
T4C0.0394
; #@! TA.AperFunction,Plated,PTH,ComponentDrill
T5C0.0591
; #@! TA.AperFunction,Plated,PTH,ComponentDrill
T6C0.0866
%
G90
G05
T1
X3.2234Y-2.4341
X3.2425Y-2.3881
X3.2425Y-2.48
X3.2884Y-2.3691
X3.2884Y-2.499
X3.3179Y-6.3553
X3.3343Y-2.3881
X3.3343Y-2.48
X3.3369Y-6.3094
X3.3369Y-6.4012
X3.3533Y-2.4341
X3.3829Y-6.2904
X3.3829Y-6.4203
X3.4124Y-4.1348
X3.4288Y-6.3094
X3.4288Y-6.4012
X3.4314Y-4.0889
X3.4314Y-4.1808
X3.4478Y-6.3553
X3.4774Y-4.0699
X3.4774Y-4.1998
X3.5233Y-4.0889
X3.5233Y-4.1808
X3.5423Y-4.1348
X6.3159Y-5.6791
X6.335Y-5.6332
X6.335Y-5.7251
X6.3809Y-5.6142
X6.3809Y-5.7441
X6.4127Y-2.8481
X6.4268Y-5.6332
X6.4268Y-5.7251
X6.4318Y-2.8022
X6.4318Y-2.894
X6.4459Y-5.6791
X6.4777Y-2.7831
X6.4777Y-2.9131
X6.5236Y-2.8022
X6.5236Y-2.894
X6.5426Y-2.8481
X9.3182Y-5.6699
X9.3373Y-5.624
X9.3373Y-5.7159
X9.3428Y-2.8461
X9.3619Y-2.8002
X9.3619Y-2.8921
X9.3832Y-5.605
X9.3832Y-5.7349
X9.4078Y-2.7812
X9.4078Y-2.9111
X9.4291Y-5.624
X9.4291Y-5.7159
X9.4482Y-5.6699
X9.4537Y-2.8002
X9.4537Y-2.8921
X9.4728Y-2.8461
X12.7854Y-2.4341
X12.8045Y-2.3881
X12.8045Y-2.48
X12.8504Y-2.3691
X12.8504Y-2.499
X12.8963Y-2.3881
X12.8963Y-2.48
X12.9154Y-2.4341
X13.7297Y-4.1001
X13.7487Y-4.0541
X13.7487Y-4.146
X13.7946Y-4.0351
X13.7946Y-4.165
X13.8179Y-6.3957
X13.8369Y-6.3497
X13.8369Y-6.4416
X13.8406Y-4.0541
X13.8406Y-4.146
X13.8596Y-4.1001
X13.8829Y-6.3307
X13.8829Y-6.4606
X13.9288Y-6.3497
X13.9288Y-6.4416
X13.9478Y-6.3957
T2
X14.1474Y-1.6434
X14.1474Y-1.7434
X14.1474Y-1.8434
X14.1474Y-1.9434
X14.1474Y-2.0434
X14.1474Y-2.1434
X14.1474Y-2.2434
X14.1474Y-2.3434
X14.1474Y-2.4434
X14.1474Y-2.5434
X14.1474Y-2.6434
X14.1474Y-2.7434
X14.1474Y-2.8434
X14.2474Y-2.8434
X14.3474Y-2.8434
X14.4474Y-2.8434
X14.5474Y-2.8434
X14.6474Y-2.8434
X14.7474Y-1.6434
X14.7474Y-1.7434
X14.7474Y-1.8434
X14.7474Y-1.9434
X14.7474Y-2.0434
X14.7474Y-2.1434
X14.7474Y-2.2434
X14.7474Y-2.3434
X14.7474Y-2.4434
X14.7474Y-2.5434
X14.7474Y-2.6434
X14.7474Y-2.7434
X14.7474Y-2.8434
T3
X2.664Y-3.4783
X2.6719Y-2.5413
X2.7585Y-6.4744
X2.853Y-4.2303
X2.9514Y-4.9823
X2.964Y-3.4783
X2.9719Y-2.5413
X3.0585Y-6.4744
X3.1404Y-5.7343
X3.153Y-4.2303
X3.2514Y-4.9823
X3.4159Y-3.4823
X3.4404Y-5.7343
X3.6089Y-2.5453
X3.7033Y-6.4783
X3.7159Y-3.4823
X3.7939Y-4.2303
X3.9089Y-2.5453
X3.9829Y-4.9823
X4.0033Y-6.4783
X4.0939Y-4.2303
X4.1679Y-3.4783
X4.2829Y-4.9823
X4.353Y-5.7343
X4.3569Y-2.5453
X4.4679Y-3.4783
X4.538Y-4.2303
X4.6499Y-6.486
X4.653Y-5.7343
X4.6569Y-2.5453
X4.7309Y-4.9823
X4.838Y-4.2303
X4.9199Y-3.4823
X4.9499Y-6.486
X5.0309Y-4.9823
X5.1049Y-2.5453
X5.1128Y-5.7303
X5.2199Y-3.4823
X5.286Y-4.2303
X5.4049Y-2.5453
X5.4128Y-5.7303
X5.4789Y-4.9823
X5.586Y-4.2303
X5.6679Y-3.4783
X5.7789Y-4.9823
X5.8569Y-2.5453
X5.8687Y-5.7343
X5.9679Y-3.4783
X6.0419Y-4.2303
X6.1569Y-2.5453
X6.1687Y-5.7343
X6.2348Y-4.9862
X6.3419Y-4.2303
X6.4199Y-3.4783
X6.5348Y-4.9862
X6.6089Y-5.7343
X6.7199Y-3.4783
X6.786Y-2.5453
X6.7939Y-4.2303
X6.9089Y-5.7343
X6.9829Y-4.9862
X7.086Y-2.5453
X7.0939Y-4.2303
X7.1679Y-3.4783
X7.2829Y-4.9862
X7.3648Y-5.7382
X7.451Y-6.4783
X7.4679Y-3.4783
X7.5419Y-2.5453
X7.5419Y-4.2303
X7.6648Y-5.7382
X7.7348Y-4.9823
X7.751Y-6.4783
X7.8419Y-2.5453
X7.8419Y-4.2303
X7.9199Y-3.4783
X8.0348Y-4.9823
X8.1128Y-5.7303
X8.2199Y-3.4783
X8.29Y-2.5413
X8.2939Y-4.2303
X8.4128Y-5.7303
X8.4829Y-4.9823
X8.59Y-2.5413
X8.5939Y-4.2303
X8.6758Y-3.4823
X8.7829Y-4.9823
X8.8569Y-5.7343
X8.9758Y-3.4823
X9.0341Y-2.5413
X9.0498Y-4.2303
X9.1569Y-5.7343
X9.2348Y-4.9823
X9.3341Y-2.5413
X9.3498Y-4.2303
X9.4199Y-3.4823
X9.5348Y-4.9823
X9.6128Y-5.7382
X9.7199Y-3.4823
X9.7978Y-4.2303
X9.9128Y-5.7382
X9.9829Y-2.5374
X9.9868Y-4.9823
X10.0978Y-4.2303
X10.1679Y-3.4823
X10.1758Y-6.4862
X10.2829Y-2.5374
X10.2868Y-4.9823
X10.353Y-5.7382
X10.4679Y-3.4823
X10.4758Y-6.4862
X10.5459Y-4.2264
X10.653Y-5.7382
X10.727Y-2.5453
X10.7348Y-4.9823
X10.8459Y-4.2264
X10.9238Y-3.4783
X10.9267Y-6.4902
X11.027Y-2.5453
X11.0348Y-4.9823
X11.1049Y-5.7343
X11.2238Y-3.4783
X11.2267Y-6.4902
X11.2978Y-4.2264
X11.4049Y-5.7343
X11.4829Y-2.5413
X11.4829Y-4.9783
X11.5978Y-4.2264
X11.664Y-3.4744
X11.664Y-6.4862
X11.7829Y-2.5413
X11.7829Y-4.9783
X11.964Y-3.4744
X11.964Y-6.4862
X12.0498Y-4.2264
X12.1364Y-5.7343
X12.227Y-2.5453
X12.3498Y-4.2264
X12.4364Y-5.7343
X12.527Y-2.5453
X12.6049Y-6.6831
X12.7027Y-4.9777
X12.7939Y-3.4783
X12.9049Y-6.6831
X12.9825Y-4.23
X13.0027Y-4.9777
X13.0939Y-3.4783
X13.164Y-2.5374
X13.2825Y-4.23
X13.353Y-5.9193
X13.3569Y-6.6831
X13.464Y-2.5374
X13.653Y-5.9193
X13.6569Y-6.6831
X14.1242Y-6.6713
X14.2935Y-4.2287
X14.2939Y-4.9783
X14.2951Y-5.7402
X14.4242Y-6.6713
X14.5935Y-4.2287
X14.5939Y-4.9783
X14.5951Y-5.7402
T4
X14.1506Y-3.2234
X14.1506Y-3.3219
X14.1506Y-3.4203
X14.7215Y-3.2234
X14.7215Y-3.4203
T5
X2.6693Y-2.2751
X2.6693Y-3.2126
X2.763Y-6.2126
X2.8568Y-3.9626
X2.9193Y-2.1751
X2.9193Y-3.1126
X2.9505Y-4.7126
X3.013Y-6.1126
X3.1068Y-3.8626
X3.1388Y-5.4642
X3.2005Y-4.6126
X3.3888Y-5.3642
X3.4193Y-3.2126
X3.6068Y-2.2751
X3.6693Y-3.1126
X3.7005Y-6.2126
X3.7943Y-3.9626
X3.8568Y-2.1751
X3.9505Y-6.1126
X3.9818Y-4.7126
X4.0443Y-3.8626
X4.1693Y-3.2126
X4.2318Y-4.6126
X4.3568Y-2.2751
X4.3568Y-5.4626
X4.4193Y-3.1126
X4.5443Y-3.9626
X4.6068Y-2.1751
X4.6068Y-5.3626
X4.638Y-6.2126
X4.7318Y-4.7126
X4.7943Y-3.8626
X4.888Y-6.1126
X4.9193Y-3.2126
X4.9818Y-4.6126
X5.1068Y-2.2751
X5.1068Y-5.4626
X5.1693Y-3.1126
X5.2943Y-3.9626
X5.3568Y-2.1751
X5.3568Y-5.3626
X5.4818Y-4.7126
X5.5443Y-3.8626
X5.6693Y-3.2126
X5.7318Y-4.6126
X5.8568Y-2.2751
X5.8568Y-5.4626
X5.9193Y-3.1126
X6.0443Y-3.9626
X6.1068Y-2.1751
X6.1068Y-5.3626
X6.2318Y-4.7126
X6.2943Y-3.8626
X6.4193Y-3.2126
X6.4818Y-4.6126
X6.6068Y-5.4626
X6.6693Y-3.1126
X6.7943Y-2.2751
X6.7943Y-3.9626
X6.8568Y-5.3626
X6.9818Y-4.7126
X7.0443Y-2.1751
X7.0443Y-3.8626
X7.1693Y-3.2126
X7.2318Y-4.6126
X7.3568Y-5.4626
X7.4193Y-3.1126
X7.4498Y-6.2122
X7.5443Y-2.2751
X7.5443Y-3.9626
X7.6068Y-5.3626
X7.6998Y-6.1122
X7.7318Y-4.7126
X7.7943Y-2.1751
X7.7943Y-3.8626
X7.9193Y-3.2126
X7.9818Y-4.6126
X8.1068Y-5.4626
X8.1693Y-3.1126
X8.2943Y-2.2751
X8.2943Y-3.9626
X8.3568Y-5.3626
X8.4818Y-4.7126
X8.5443Y-2.1751
X8.5443Y-3.8626
X8.6693Y-3.2126
X8.7318Y-4.6126
X8.8568Y-5.4626
X8.9193Y-3.1126
X9.0443Y-2.2751
X9.0443Y-3.9626
X9.1068Y-5.3626
X9.2318Y-4.7126
X9.2943Y-2.1751
X9.2943Y-3.8626
X9.4193Y-3.2126
X9.4818Y-4.6126
X9.6068Y-5.4626
X9.6693Y-3.1126
X9.7943Y-3.9626
X9.8568Y-5.3626
X9.9818Y-2.2751
X9.9818Y-4.7126
X10.0443Y-3.8626
X10.1693Y-3.2126
X10.1693Y-6.2126
X10.2318Y-2.1751
X10.2318Y-4.6126
X10.3568Y-5.4626
X10.4193Y-3.1126
X10.4193Y-6.1126
X10.5443Y-3.9626
X10.6068Y-5.3626
X10.7318Y-2.2751
X10.7318Y-4.7126
X10.7943Y-3.8626
X10.9193Y-3.2126
X10.9193Y-6.2126
X10.9818Y-2.1751
X10.9818Y-4.6126
X11.1068Y-5.4626
X11.1693Y-3.1126
X11.1693Y-6.1126
X11.2943Y-3.9626
X11.3568Y-5.3626
X11.4818Y-2.2751
X11.4818Y-4.7126
X11.5443Y-3.8626
X11.6693Y-3.2126
X11.6693Y-6.2126
X11.7318Y-2.1751
X11.7318Y-4.6126
X11.9193Y-3.1126
X11.9193Y-6.1126
X12.0443Y-3.9626
X12.138Y-5.4626
X12.2318Y-2.2751
X12.2943Y-3.8626
X12.388Y-5.3626
X12.4818Y-2.1751
X12.6068Y-6.4001
X12.7006Y-4.7126
X12.7943Y-3.2126
X12.8568Y-6.3001
X12.9506Y-4.6126
X12.9818Y-3.9626
X13.0443Y-3.1126
X13.1693Y-2.2751
X13.2318Y-3.8626
X13.3568Y-5.6501
X13.3568Y-6.4001
X13.4193Y-2.1751
X13.6068Y-5.5501
X13.6068Y-6.3001
X14.1068Y-6.4001
X14.2939Y-3.963
X14.2939Y-5.463
X14.2943Y-4.7126
X14.3568Y-6.3001
X14.5439Y-3.863
X14.5439Y-5.363
X14.5443Y-4.6126
T6
X3.2884Y-2.4341
X3.3829Y-6.3553
X3.4774Y-4.1348
X6.3809Y-5.6791
X6.4777Y-2.8481
X9.3832Y-5.6699
X9.4078Y-2.8461
X12.8504Y-2.4341
X13.7946Y-4.1001
X13.8829Y-6.3957
T5
G00X14.4203Y-3.1014
M15
G01X14.4715Y-3.1014
M16
G05
G00X14.4203Y-3.5423
M15
G01X14.4715Y-3.5423
M16
G05
M30
