%TF.GenerationSoftware,KiCad,Pcbnew,8.0.4*%
%TF.CreationDate,2024-09-14T21:21:30-04:00*%
%TF.ProjectId,mykeyboard2,6d796b65-7962-46f6-9172-64322e6b6963,rev?*%
%TF.SameCoordinates,Original*%
%TF.FileFunction,Paste,Top*%
%TF.FilePolarity,Positive*%
%FSLAX46Y46*%
G04 Gerber Fmt 4.6, Leading zero omitted, Abs format (unit mm)*
G04 Created by KiCad (PCBNEW 8.0.4) date 2024-09-14 21:21:30*
%MOMM*%
%LPD*%
G01*
G04 APERTURE LIST*
%ADD10R,0.900000X1.200000*%
G04 APERTURE END LIST*
D10*
%TO.C,D38*%
X251025000Y-107450000D03*
X254325000Y-107450000D03*
%TD*%
%TO.C,D11*%
X293825000Y-64550000D03*
X297125000Y-64550000D03*
%TD*%
%TO.C,D73*%
X120266389Y-164743788D03*
X123566389Y-164743788D03*
%TD*%
%TO.C,D3*%
X131825000Y-64650000D03*
X135125000Y-64650000D03*
%TD*%
%TO.C,D79*%
X341425000Y-169750000D03*
X344725000Y-169750000D03*
%TD*%
%TO.C,D23*%
X241425000Y-88450000D03*
X244725000Y-88450000D03*
%TD*%
%TO.C,D14*%
X69825000Y-88350000D03*
X73125000Y-88350000D03*
%TD*%
%TO.C,D17*%
X127125000Y-88450000D03*
X130425000Y-88450000D03*
%TD*%
%TO.C,D70*%
X341325000Y-150350000D03*
X344625000Y-150350000D03*
%TD*%
%TO.C,D76*%
X279697046Y-164851682D03*
X282997046Y-164851682D03*
%TD*%
%TO.C,D61*%
X151225000Y-145650000D03*
X154525000Y-145650000D03*
%TD*%
%TO.C,D1*%
X93825000Y-64650000D03*
X97125000Y-64650000D03*
%TD*%
%TO.C,D49*%
X179525000Y-126650000D03*
X182825000Y-126650000D03*
%TD*%
%TO.C,D8*%
X231625000Y-64550000D03*
X234925000Y-64550000D03*
%TD*%
%TO.C,D37*%
X232025000Y-107450000D03*
X235325000Y-107450000D03*
%TD*%
%TO.C,D77*%
X298425000Y-164750000D03*
X301725000Y-164750000D03*
%TD*%
%TO.C,D4*%
X150925000Y-64650000D03*
X154225000Y-64650000D03*
%TD*%
%TO.C,D56*%
X324808757Y-126433621D03*
X328108757Y-126433621D03*
%TD*%
%TO.C,D62*%
X170025000Y-145650000D03*
X173325000Y-145650000D03*
%TD*%
%TO.C,D50*%
X198625000Y-126550000D03*
X201925000Y-126550000D03*
%TD*%
%TO.C,D57*%
X365225000Y-126450000D03*
X368525000Y-126450000D03*
%TD*%
%TO.C,D33*%
X155625000Y-107450000D03*
X158925000Y-107450000D03*
%TD*%
%TO.C,D65*%
X227125000Y-145650000D03*
X230425000Y-145650000D03*
%TD*%
%TO.C,D5*%
X174525000Y-64650000D03*
X177825000Y-64650000D03*
%TD*%
%TO.C,D74*%
X191415000Y-164550000D03*
X194715000Y-164550000D03*
%TD*%
%TO.C,D30*%
X98525000Y-107450000D03*
X101825000Y-107450000D03*
%TD*%
%TO.C,D29*%
X74625000Y-107450000D03*
X77925000Y-107450000D03*
%TD*%
%TO.C,D71*%
X72225000Y-164450000D03*
X75525000Y-164450000D03*
%TD*%
%TO.C,D55*%
X293825000Y-126450000D03*
X297125000Y-126450000D03*
%TD*%
%TO.C,D7*%
X212725000Y-64550000D03*
X216025000Y-64550000D03*
%TD*%
%TO.C,D20*%
X184225000Y-88350000D03*
X187525000Y-88350000D03*
%TD*%
%TO.C,D51*%
X217625000Y-126550000D03*
X220925000Y-126550000D03*
%TD*%
%TO.C,D59*%
X112725000Y-145650000D03*
X116025000Y-145650000D03*
%TD*%
%TO.C,D36*%
X212825000Y-107450000D03*
X216125000Y-107450000D03*
%TD*%
%TO.C,D75*%
X260625000Y-164750000D03*
X263925000Y-164750000D03*
%TD*%
%TO.C,D42*%
X331916043Y-107441219D03*
X335216043Y-107441219D03*
%TD*%
%TO.C,D48*%
X160525000Y-126650000D03*
X163825000Y-126650000D03*
%TD*%
%TO.C,D15*%
X88925000Y-88450000D03*
X92225000Y-88450000D03*
%TD*%
%TO.C,D35*%
X193725000Y-107450000D03*
X197025000Y-107450000D03*
%TD*%
%TO.C,D6*%
X193725000Y-64650000D03*
X197025000Y-64650000D03*
%TD*%
%TO.C,D34*%
X174725000Y-107450000D03*
X178025000Y-107450000D03*
%TD*%
%TO.C,D22*%
X222525000Y-88450000D03*
X225825000Y-88450000D03*
%TD*%
%TO.C,D54*%
X274825000Y-126550000D03*
X278125000Y-126550000D03*
%TD*%
%TO.C,D64*%
X208225000Y-145550000D03*
X211525000Y-145550000D03*
%TD*%
%TO.C,D78*%
X322325000Y-169750000D03*
X325625000Y-169750000D03*
%TD*%
%TO.C,D44*%
X77125000Y-126550000D03*
X80425000Y-126550000D03*
%TD*%
%TO.C,D41*%
X308225000Y-107350000D03*
X311525000Y-107350000D03*
%TD*%
%TO.C,D19*%
X165225000Y-88350000D03*
X168525000Y-88350000D03*
%TD*%
%TO.C,D24*%
X260425000Y-88450000D03*
X263725000Y-88450000D03*
%TD*%
%TO.C,D27*%
X327125000Y-88350000D03*
X330425000Y-88350000D03*
%TD*%
%TO.C,D58*%
X81925000Y-145650000D03*
X85225000Y-145650000D03*
%TD*%
%TO.C,D53*%
X255825000Y-126550000D03*
X259125000Y-126550000D03*
%TD*%
%TO.C,D10*%
X274625000Y-64650000D03*
X277925000Y-64650000D03*
%TD*%
%TO.C,D26*%
X298425000Y-88250000D03*
X301725000Y-88250000D03*
%TD*%
%TO.C,D52*%
X236725000Y-126550000D03*
X240025000Y-126550000D03*
%TD*%
%TO.C,D32*%
X136425000Y-107450000D03*
X139725000Y-107450000D03*
%TD*%
%TO.C,D9*%
X255725000Y-64450000D03*
X259025000Y-64450000D03*
%TD*%
%TO.C,D66*%
X246325000Y-145750000D03*
X249625000Y-145750000D03*
%TD*%
%TO.C,D40*%
X289125000Y-107350000D03*
X292425000Y-107350000D03*
%TD*%
%TO.C,D2*%
X112825000Y-64650000D03*
X116125000Y-64650000D03*
%TD*%
%TO.C,D69*%
X310425000Y-145650000D03*
X313725000Y-145650000D03*
%TD*%
%TO.C,D63*%
X189225000Y-145750000D03*
X192525000Y-145750000D03*
%TD*%
%TO.C,D60*%
X132025000Y-145550000D03*
X135325000Y-145550000D03*
%TD*%
%TO.C,D0*%
X70025000Y-64550000D03*
X73325000Y-64550000D03*
%TD*%
%TO.C,D45*%
X103325000Y-126550000D03*
X106625000Y-126550000D03*
%TD*%
%TO.C,D18*%
X146125000Y-88350000D03*
X149425000Y-88350000D03*
%TD*%
%TO.C,D47*%
X141325000Y-126550000D03*
X144625000Y-126550000D03*
%TD*%
%TO.C,D31*%
X117425000Y-107450000D03*
X120725000Y-107450000D03*
%TD*%
%TO.C,D16*%
X108025000Y-88350000D03*
X111325000Y-88350000D03*
%TD*%
%TO.C,D39*%
X270025000Y-107350000D03*
X273325000Y-107350000D03*
%TD*%
%TO.C,D12*%
X312725000Y-64650000D03*
X316025000Y-64650000D03*
%TD*%
%TO.C,D21*%
X203325000Y-88350000D03*
X206625000Y-88350000D03*
%TD*%
%TO.C,D46*%
X122325000Y-126550000D03*
X125625000Y-126550000D03*
%TD*%
%TO.C,D81*%
X365255000Y-145800000D03*
X368555000Y-145800000D03*
%TD*%
%TO.C,D25*%
X279625000Y-88350000D03*
X282925000Y-88350000D03*
%TD*%
%TO.C,D68*%
X284225000Y-145650000D03*
X287525000Y-145650000D03*
%TD*%
%TO.C,D43*%
X365215000Y-107410000D03*
X368515000Y-107410000D03*
%TD*%
%TO.C,D67*%
X265125000Y-145750000D03*
X268425000Y-145750000D03*
%TD*%
%TO.C,D72*%
X96225000Y-164550000D03*
X99525000Y-164550000D03*
%TD*%
%TO.C,D13*%
X336525000Y-64450000D03*
X339825000Y-64450000D03*
%TD*%
%TO.C,D80*%
X360915000Y-169450000D03*
X364215000Y-169450000D03*
%TD*%
M02*
